<svg xmlns="http://www.w3.org/2000/svg" width="159" height="27" viewBox="0 0 159 27">
    <defs>
        <style>
            .cls-1{fill:#174de5}
        </style>
    </defs>
    <g id="그룹_1401" transform="translate(-94 -99)">
        <g id="그룹_1368" transform="translate(94 99)">
            <path id="패스_325" d="M6.687 25.211a12.616 12.616 0 0 1-4.916-4.825A13.584 13.584 0 0 1 0 13.482a13.584 13.584 0 0 1 1.771-6.9 12.738 12.738 0 0 1 4.916-4.829A14.162 14.162 0 0 1 13.735 0a14.313 14.313 0 0 1 6.144 1.265 11.579 11.579 0 0 1 4.428 3.47c.2.253.38.524.56.777a2.687 2.687 0 0 1-2.241 4.157h-.108A2.71 2.71 0 0 1 20.2 8.331a5.866 5.866 0 0 0-1.789-1.807 8.031 8.031 0 0 0-4.554-1.265A8.261 8.261 0 0 0 9.7 6.307a7.6 7.6 0 0 0-2.923 2.928 8.75 8.75 0 0 0-1.048 4.247 8.417 8.417 0 0 0 1.048 4.211 7.6 7.6 0 0 0 2.91 2.946 8.261 8.261 0 0 0 4.157 1.048 8.19 8.19 0 0 0 5.91-2.476 4.939 4.939 0 0 0 .723-.958 2.607 2.607 0 0 1 2.223-1.319h.217a2.69 2.69 0 0 1 2.241 4.175c-.163.253-.343.506-.524.741a12.864 12.864 0 0 1-4.608 3.7 13.974 13.974 0 0 1-6.289 1.41 14.354 14.354 0 0 1-7.05-1.749z" class="cls-1"/>
            <path id="패스_326" d="M30.887 5.467a8.9 8.9 0 0 1 3.488 3.452 9.912 9.912 0 0 1 1.265 4.97 9.729 9.729 0 0 1-1.265 4.97 9.018 9.018 0 0 1-3.488 3.452 10.175 10.175 0 0 1-5.042 1.247A10.224 10.224 0 0 1 20.8 22.31a8.9 8.9 0 0 1-3.488-3.452 9.912 9.912 0 0 1-1.265-4.97 9.729 9.729 0 0 1 1.265-4.97A9.018 9.018 0 0 1 20.8 5.467a10.127 10.127 0 0 1 5.045-1.247 10.224 10.224 0 0 1 5.042 1.247zm-8.2 4.9a5.077 5.077 0 0 0-1.211 3.506 5.046 5.046 0 0 0 1.211 3.506 4.005 4.005 0 0 0 3.163 1.373 4.005 4.005 0 0 0 3.163-1.373 5.077 5.077 0 0 0 1.211-3.506 5.046 5.046 0 0 0-1.211-3.506 4.005 4.005 0 0 0-3.163-1.373 4.1 4.1 0 0 0-3.168 1.37z" class="cls-1" transform="translate(12.513 3.407)"/>
            <path id="패스_327" d="M45.324 8.252l-5.078 13.229a2.6 2.6 0 0 1-2.44 1.681h-2.241a2.6 2.6 0 0 1-2.44-1.681L28.047 8.252a2.612 2.612 0 0 1 2.44-3.542h.413a2.605 2.605 0 0 1 2.476 1.771L36.9 16.746l3.527-10.265A2.629 2.629 0 0 1 42.9 4.71a2.6 2.6 0 0 1 2.424 3.542z" class="cls-1" transform="translate(21.745 3.802)"/>
            <path id="패스_328" d="M42.929 22.31a8.393 8.393 0 0 1-3.181-3.452 10.654 10.654 0 0 1-1.139-4.97 10.654 10.654 0 0 1 1.139-4.97 8.505 8.505 0 0 1 3.181-3.452 8.781 8.781 0 0 1 4.663-1.246 6.179 6.179 0 0 1 5.3 2.331 1.9 1.9 0 0 1 1.9-1.9h1.818a1.9 1.9 0 0 1 1.9 1.9v14.675a1.9 1.9 0 0 1-1.9 1.9h-1.826a1.9 1.9 0 0 1-1.9-1.9 6.157 6.157 0 0 1-5.3 2.331 8.781 8.781 0 0 1-4.655-1.247zm8.819-4.916a5.088 5.088 0 0 0 1.229-3.506 5.057 5.057 0 0 0-1.229-3.506 4.154 4.154 0 0 0-3.271-1.373 3.992 3.992 0 0 0-3.177 1.374 5.154 5.154 0 0 0-1.2 3.505 5.122 5.122 0 0 0 1.2 3.506 3.992 3.992 0 0 0 3.181 1.373 4.214 4.214 0 0 0 3.267-1.373z" class="cls-1" transform="translate(30.098 3.407)"/>
            <path id="패스_329" d="M64.172 4.946a7.253 7.253 0 0 1 3.018 2.1.063.063 0 0 1 .018.036 1.927 1.927 0 0 1-1.518 3.126h-1.373a2 2 0 0 1-1.626-.759A2.2 2.2 0 0 0 62 8.868a4.278 4.278 0 0 0-2.132-.488 4.822 4.822 0 0 0-2.1.4c-.56.271-.831.6-.831 1.03s.325.8.976 1.066a16.569 16.569 0 0 0 3.4.8c2.675.4 4.572 1.066 5.693 1.988a4.623 4.623 0 0 1 1.7 3.813 4.854 4.854 0 0 1-1.157 3.217 7.368 7.368 0 0 1-3.145 2.132 12.015 12.015 0 0 1-4.337.759 11.511 11.511 0 0 1-4.337-.777 7.5 7.5 0 0 1-3.09-2.187c-.054-.054-.09-.127-.145-.181a1.954 1.954 0 0 1 1.554-3.126h1.611a1.894 1.894 0 0 1 1.482.8 2.582 2.582 0 0 0 .741.633 4.5 4.5 0 0 0 2.259.542 5.106 5.106 0 0 0 2.241-.434c.6-.289.886-.651.886-1.066 0-.434-.343-.813-1.03-1.12a13.605 13.605 0 0 0-3.4-.8 12.824 12.824 0 0 1-5.458-1.825A4.486 4.486 0 0 1 51.54 10.1a4.679 4.679 0 0 1 1.12-3.09 7 7 0 0 1 3.04-2.046 11.967 11.967 0 0 1 4.283-.723 10.494 10.494 0 0 1 4.189.705z" class="cls-1" transform="translate(39.998 3.421)"/>
            <path id="패스_330" d="M72.39 11.963h-1.247v11.223a2.4 2.4 0 0 1-2.4 2.4h-.8a2.4 2.4 0 0 1-2.4-2.4V11.963h-1.249a2.4 2.4 0 0 1-2.4-2.4 2.4 2.4 0 0 1 2.4-2.4h1.247V4.084a2.4 2.4 0 0 1 2.4-2.4h.8a2.4 2.4 0 0 1 2.4 2.4v3.072h1.249a2.4 2.4 0 0 1 2.4 2.4 2.391 2.391 0 0 1-2.4 2.407z" class="cls-1" transform="translate(48.353 1.356)"/>
        </g>
        <g id="그룹_1369" transform="translate(226 99)">
            <path id="패스_331" d="M97.662 27.31H77.636a3.5 3.5 0 0 1-3.5-3.5V3.806a3.5 3.5 0 0 1 3.5-3.5h20.007a3.5 3.5 0 0 1 3.5 3.5v20.008a3.492 3.492 0 0 1-3.481 3.496z" class="cls-1" transform="translate(-74.14 -.31)"/>
            <path id="패스_332" fill="#fff" d="M88.877 8.384v5.8a1.273 1.273 0 0 0 1.281 1.281h1.611a1.273 1.273 0 0 1 1.281 1.281v1.172a1.273 1.273 0 0 1-1.281 1.282H78.461a1.273 1.273 0 0 1-1.281-1.281v-1.1a1.273 1.273 0 0 1 1.281-1.281h1.611a1.273 1.273 0 0 0 1.281-1.281v-5.8a1.273 1.273 0 0 0-1.281-1.281h-1.611a1.273 1.273 0 0 1-1.281-1.282V4.631a1.273 1.273 0 0 1 1.281-1.281h13.308a1.273 1.273 0 0 1 1.281 1.281V5.8a1.273 1.273 0 0 1-1.281 1.281h-1.611a1.313 1.313 0 0 0-1.281 1.303z" transform="translate(-71.615 2.215)"/>
        </g>
    </g>
</svg>
